# xmcd
#
# Track frame offsets:
#	150
#	22166
#	42332
#	54508
#	66398
#	78805
#	100192
#	120058
#	132773
#	148898
#	163467
#	177334
#	192285
#	205370
#	218489
#	236238
#	248030
#	261097
#	275196
#	294494
#	309158
#	319793
#
# Disc length: 4482 seconds
#
# Revision: 0
# Processed by: cddbd v1.5.1PL0 Copyright (c) Steve Scherf et al.
# Submitted via: dBpowerAMP V4.0
#
DISCID=4c118016
DTITLE=the essential country Album - Disc 1
DYEAR=1900
DGENRE=
TTITLE0=Willie Nelson - City of new orleans
TTITLE1=hal Ketchum- Past point of Rescue
TTITLE2=Dolly Parton -Jolie
TTITLE3=Johnny Cash - ring of fire
TTITLE4=charlie Rich- The most beautiful girl in the ..
TTITLE5=Lynard Skynyrd- Sweet home alabama
TTITLE6=The mavericks- dance the night away
TTITLE7=Roy Orbison- Crying
TTITLE8=Randy Travis -forever and ever Amen
TTITLE9=Bellamy Brothers- I said you had a beautiful ...
TTITLE10=Don williams- Your my best friend
TTITLE11=George Jones- He stopped loving her today
TTITLE12=Lynn Anderson -rose Garden
TTITLE13=Jim Reeves- Distant drums
TTITLE14=The judds- Love aint going nowhere
TTITLE15=The Byrds- You aint going nowhere
TTITLE16=Marty Robsion- Devil woman
TTITLE17=Gordon Lightfoot- Early morning rain
TTITLE18=Robbie Gentry- Ode to billie joe
TTITLE19=Loretta Lyn- Coal miners daughter
TTITLE20=Everly brothers- Byebye love
TTITLE21=Leann Rimes- you light up my life
EXTD=
EXTT0=
EXTT1=
EXTT2=
EXTT3=
EXTT4=
EXTT5=
EXTT6=
EXTT7=
EXTT8=
EXTT9=
EXTT10=
EXTT11=
EXTT12=
EXTT13=
EXTT14=
EXTT15=
EXTT16=
EXTT17=
EXTT18=
EXTT19=
EXTT20=
EXTT21=
PLAYORDER=
